<svg width="179" height="491" viewBox="0 0 179 491" fill="none" xmlns="http://www.w3.org/2000/svg">
<path d="M178 245.5C178 177.793 167.993 116.539 151.847 72.248C143.772 50.0985 134.18 32.2437 123.58 19.9453C112.977 7.64392 101.457 1 89.5 1C77.5427 1 66.0228 7.64392 55.4199 19.9453C44.8197 32.2437 35.2282 50.0985 27.1533 72.248C11.0066 116.539 1 177.793 1 245.5C1 313.207 11.0066 374.461 27.1533 418.752C35.2282 440.902 44.8197 458.756 55.4199 471.055C66.0228 483.356 77.5427 490 89.5 490V491C40.0705 491 0 381.086 0 245.5C0 109.914 40.0705 0 89.5 0C138.929 0 179 109.914 179 245.5C179 381.086 138.929 491 89.5 491V490C101.457 490 112.977 483.356 123.58 471.055C134.18 458.756 143.772 440.902 151.847 418.752C167.993 374.461 178 313.207 178 245.5Z" fill="#FF0808"/>
</svg>
