<svg width="1200" height="1200" viewBox="0 0 1200 1200" fill="none" xmlns="http://www.w3.org/2000/svg">
<path d="M1200 600C1200 931.371 931.371 1200 600 1200C268.629 1200 0 931.371 0 600C0 268.629 268.629 0 600 0C931.371 0 1200 268.629 1200 600Z" fill="white"/>
<path d="M315.726 121.215L335.073 151.574C336.753 154.209 338.062 156.525 339 158.521C339.965 160.5 340.657 162.69 341.075 165.091C341.79 169.12 341.203 172.996 339.314 176.719C337.409 180.416 334.282 183.65 329.934 186.422C326.007 188.924 322.332 190.396 318.907 190.837C315.509 191.261 312.124 190.601 308.753 188.859C306.969 187.92 305.201 186.657 303.448 185.069C301.694 183.481 300.264 181.818 299.155 180.079C297.98 178.234 297.595 176.496 298.001 174.866C298.408 173.236 299.415 171.909 301.022 170.884C302.577 169.894 304.035 169.594 305.397 169.986C306.759 170.379 308.255 171.389 309.886 173.018C311.627 174.761 313.108 176.097 314.328 177.023C315.549 177.95 316.963 178.512 318.572 178.71C320.18 178.908 321.959 178.386 323.909 177.143C329.101 173.834 329.27 168.372 324.416 160.756L303.985 128.697C302.474 126.325 301.854 124.219 302.126 122.378C302.424 120.52 303.47 119.02 305.262 117.878C307.08 116.72 308.894 116.397 310.704 116.911C312.54 117.409 314.214 118.843 315.726 121.215Z" fill="black"/>
<path d="M359.801 89.6828C366.259 86.6721 372.41 85.4075 378.254 85.8891C384.114 86.3292 389.363 88.4163 394 92.1503C398.624 95.856 402.454 100.966 405.492 107.48C407.736 112.295 409.125 116.975 409.658 121.519C410.19 126.063 409.827 130.387 408.569 134.491C407.31 138.595 405.139 142.296 402.057 145.595C398.975 148.894 394.984 151.686 390.084 153.97C385.212 156.242 380.487 157.496 375.909 157.734C371.318 157.944 367.067 157.22 363.156 155.561C359.244 153.902 355.686 151.372 352.479 147.97C349.301 144.556 346.623 140.512 344.444 135.839C342.213 131.052 340.846 126.345 340.343 121.718C339.869 117.077 340.281 112.748 341.58 108.729C342.878 104.71 345.053 101.093 348.105 97.8767C351.144 94.6325 355.043 91.9012 359.801 89.6828ZM392.664 113.357C390.538 108.797 387.96 105.19 384.929 102.534C381.898 99.8787 378.612 98.3417 375.073 97.9232C371.548 97.4632 368.016 98.0585 364.475 99.7091C361.955 100.884 359.843 102.455 358.139 104.422C356.45 106.347 355.25 108.579 354.537 111.118C353.853 113.644 353.718 116.534 354.132 119.789C354.561 123.002 355.595 126.365 357.232 129.877C358.883 133.417 360.814 136.413 363.026 138.864C365.266 141.302 367.635 143.094 370.134 144.239C372.649 145.342 375.172 145.873 377.703 145.83C380.263 145.774 382.804 145.159 385.324 143.984C388.553 142.478 391.137 140.291 393.075 137.422C395.041 134.54 396.031 131.044 396.046 126.934C396.089 122.811 394.962 118.286 392.664 113.357Z" fill="black"/>
<path d="M450.823 64.034L461.609 98.3805C462.545 101.362 463.206 103.938 463.593 106.11C464.01 108.272 464.108 110.566 463.888 112.994C463.53 117.069 461.955 120.659 459.163 123.763C456.362 126.838 452.501 129.147 447.582 130.692C443.139 132.087 439.208 132.552 435.786 132.087C432.394 131.612 429.298 130.095 426.496 127.536C425.018 126.166 423.639 124.486 422.359 122.497C421.079 120.508 420.13 118.529 419.512 116.561C418.857 114.474 418.938 112.697 419.754 111.229C420.57 109.76 421.888 108.741 423.707 108.169C425.466 107.617 426.952 107.707 428.164 108.44C429.377 109.173 430.559 110.538 431.71 112.535C432.938 114.671 434.02 116.346 434.958 117.558C435.895 118.77 437.115 119.681 438.617 120.291C440.118 120.9 441.972 120.858 444.178 120.166C450.052 118.321 451.636 113.091 448.93 104.474L437.541 68.2049C436.698 65.5215 436.648 63.3265 437.389 61.6197C438.161 59.9036 439.56 58.7272 441.587 58.0906C443.645 57.4446 445.48 57.6052 447.094 58.5723C448.738 59.5302 449.981 61.3507 450.823 64.034Z" fill="black"/>
<path d="M501.617 45.0642C508.637 43.8401 514.905 44.2221 520.422 46.21C525.965 48.1618 530.488 51.5444 533.992 56.3577C537.491 61.1403 539.857 67.0719 541.092 74.1525C542.005 79.3861 542.126 84.2659 541.456 88.792C540.786 93.3181 539.309 97.3982 537.025 101.032C534.74 104.666 531.68 107.674 527.845 110.056C524.009 112.438 519.429 114.093 514.103 115.022C508.808 115.945 503.919 115.925 499.437 114.962C494.95 113.969 491.034 112.161 487.69 109.54C484.347 106.92 481.57 103.55 479.361 99.4305C477.182 95.3059 475.65 90.7038 474.764 85.6242C473.857 80.4215 473.764 75.5209 474.485 70.9225C475.236 66.3187 476.762 62.2459 479.063 58.7043C481.364 55.1626 484.406 52.237 488.191 49.9275C491.97 47.5872 496.445 45.9661 501.617 45.0642ZM527.177 76.4841C526.312 71.5277 524.763 67.3727 522.529 64.0192C520.294 60.6657 517.523 58.3257 514.215 56.9994C510.932 55.6369 507.366 55.2911 503.518 55.9622C500.778 56.44 498.329 57.4063 496.172 58.861C494.041 60.2796 492.3 62.1216 490.95 64.3872C489.631 66.6473 488.748 69.4026 488.3 72.6529C487.877 75.8671 487.998 79.3829 488.664 83.2003C489.335 87.0484 490.419 90.444 491.915 93.3869C493.443 96.3244 495.264 98.6715 497.378 100.428C499.518 102.149 501.816 103.318 504.271 103.937C506.757 104.55 509.37 104.618 512.11 104.14C515.619 103.528 518.684 102.089 521.302 99.8247C523.952 97.5546 525.819 94.4374 526.904 90.4733C528.02 86.5038 528.111 81.8408 527.177 76.4841Z" fill="black"/>
<path d="M635.213 85.8273C635.155 89.9832 634.025 93.7022 631.823 96.9845C629.652 100.267 626.492 102.817 622.341 104.635C618.19 106.452 613.287 107.322 607.632 107.243C600.851 107.149 595.276 105.79 590.905 103.167C587.806 101.28 585.294 98.7914 583.368 95.7019C581.473 92.5815 580.546 89.5684 580.587 86.6624C580.61 84.9751 581.208 83.5457 582.381 82.3744C583.585 81.1723 585.093 80.5838 586.906 80.609C588.374 80.6294 589.602 81.1152 590.589 82.0665C591.607 83.0182 592.463 84.4209 593.156 86.2744C594 88.4739 594.912 90.3149 595.892 91.7974C596.903 93.2803 598.323 94.5189 600.153 95.5132C601.984 96.4762 604.399 96.9785 607.398 97.0202C611.523 97.0775 614.88 96.1709 617.469 94.3004C620.089 92.3991 621.419 90.0111 621.459 87.1364C621.491 84.8554 620.813 83.002 619.427 81.5764C618.072 80.1199 616.29 79.0013 614.082 78.2206C611.905 77.4403 608.979 76.6027 605.304 75.7078C600.383 74.4831 596.261 73.0819 592.939 71.5044C589.649 69.896 587.037 67.7502 585.106 65.0668C583.206 62.3527 582.283 59.0114 582.339 55.0431C582.391 51.2622 583.469 47.9174 585.572 45.0089C587.675 42.1003 590.69 39.892 594.618 38.3839C598.546 36.8446 603.15 36.1116 608.431 36.1849C612.649 36.2435 616.282 36.8253 619.33 37.9302C622.409 39.0043 624.952 40.4304 626.959 42.2085C628.966 43.9553 630.425 45.7882 631.336 47.7073C632.247 49.6264 632.69 51.4921 632.664 53.3044C632.641 54.9605 632.027 56.4521 630.821 57.7792C629.646 59.0756 628.184 59.7116 626.435 59.6873C624.841 59.6651 623.628 59.2576 622.795 58.4647C621.994 57.641 621.121 56.3163 620.178 54.4905C618.964 51.8796 617.492 49.8433 615.762 48.3817C614.033 46.8888 611.231 46.1154 607.356 46.0616C603.763 46.0116 600.846 46.7681 598.605 48.3309C596.396 49.8628 595.276 51.7381 595.245 53.9566C595.226 55.3315 595.585 56.5241 596.321 57.5344C597.057 58.5447 598.076 59.4183 599.379 60.1552C600.681 60.8922 602.001 61.473 603.339 61.8979C604.677 62.3228 606.887 62.9473 609.97 63.7715C613.832 64.7314 617.318 65.78 620.427 66.917C623.568 68.0545 626.221 69.4196 628.387 71.0123C630.584 72.6055 632.275 74.6136 633.46 77.0365C634.677 79.4286 635.261 82.3589 635.213 85.8273Z" fill="black"/>
<path d="M698.665 56.9506L683.62 54.8713L676.786 104.323C676.392 107.171 675.464 109.204 674.003 110.421C672.545 111.608 670.81 112.062 668.798 111.784C666.755 111.502 665.18 110.574 664.072 109.002C662.996 107.433 662.652 105.24 663.041 102.423L669.876 52.9717L654.832 50.8924C652.479 50.5672 650.801 49.8147 649.796 48.6349C648.796 47.4241 648.414 45.9674 648.65 44.2648C648.893 42.5003 649.674 41.1886 650.992 40.3297C652.34 39.475 654.144 39.2038 656.404 39.5161L700.237 45.5744C702.621 45.9038 704.313 46.6739 705.312 47.8847C706.343 49.0998 706.741 50.5586 706.506 52.2612C706.27 53.9638 705.492 55.26 704.17 56.1499C702.853 57.0089 701.018 57.2758 698.665 56.9506Z" fill="black"/>
<path d="M713.511 89.3801L722.352 57.5378C723.104 54.8278 724.271 52.9625 725.852 51.942C727.462 50.9297 729.261 50.6995 731.249 51.2513C733.326 51.8282 734.779 52.9613 735.607 54.6507C736.466 56.3485 736.519 58.5524 735.766 61.2623L726.724 93.8273C725.696 97.5309 725.242 100.745 725.361 103.47C725.518 106.173 726.459 108.51 728.182 110.48C729.913 112.421 732.676 113.917 736.47 114.971C741.709 116.426 745.798 116.069 748.735 113.901C751.68 111.702 753.939 107.773 755.511 102.112L764.628 69.2758C765.388 66.5357 766.555 64.6704 768.127 63.68C769.708 62.6594 771.507 62.4292 773.524 62.9893C775.542 63.5495 776.98 64.6784 777.838 66.3762C778.735 68.0522 778.803 70.2603 778.042 73.0004L769.201 104.843C767.763 110.022 766.051 114.2 764.066 117.379C762.111 120.566 759.37 123.08 755.842 124.922C752.814 126.482 749.563 127.33 746.087 127.468C742.611 127.605 738.735 127.081 734.459 125.893C729.37 124.481 725.14 122.722 721.767 120.618C718.403 118.484 715.879 115.951 714.196 113.019C712.521 110.057 711.639 106.633 711.55 102.749C711.469 98.8348 712.123 94.3785 713.511 89.3801Z" fill="black"/>
<path d="M811.34 77.8819L827.931 85.2161C832.247 87.1239 835.772 89.1602 838.505 91.325C841.238 93.4899 843.376 96.2286 844.918 99.5412C848.987 108.037 848.495 118.001 843.441 129.434C841.773 133.206 839.922 136.505 837.888 139.33C835.853 142.155 833.594 144.522 831.11 146.43C828.639 148.311 825.896 149.763 822.88 150.788C820.524 151.557 818.144 151.957 815.739 151.987C813.334 152.017 810.891 151.707 808.412 151.055C805.961 150.416 803.292 149.458 800.406 148.182L783.814 140.848C781.499 139.824 779.907 138.71 779.038 137.506C778.182 136.274 777.846 134.947 778.031 133.525C778.256 132.087 778.817 130.353 779.714 128.324L800.087 82.2356C801.3 79.4917 802.793 77.7769 804.565 77.0911C806.338 76.4054 808.596 76.669 811.34 77.8819ZM811.816 90.1365L792.959 132.795L802.606 137.059C804.721 137.994 806.404 138.67 807.655 139.086C808.906 139.503 810.276 139.766 811.764 139.878C813.252 139.989 814.651 139.838 815.961 139.426C821.812 137.708 826.683 132.447 830.574 123.643C833.316 117.441 834.426 112.38 833.904 108.459C833.41 104.551 831.975 101.576 829.597 99.534C827.233 97.4636 824.107 95.5693 820.219 93.851L811.816 90.1365Z" fill="black"/>
<path d="M844.369 160.543L871.104 113.464C872.493 111.018 874.092 109.5 875.901 108.91C877.709 108.32 879.497 108.527 881.263 109.53C883.084 110.564 884.204 112.008 884.623 113.864C885.086 115.708 884.615 117.866 883.21 120.339L856.475 167.418C855.071 169.89 853.451 171.414 851.615 171.989C849.806 172.579 847.992 172.357 846.171 171.323C844.432 170.335 843.339 168.906 842.892 167.035C842.488 165.153 842.98 162.988 844.369 160.543Z" fill="black"/>
<path d="M931.36 143.086C937.144 147.247 941.254 151.995 943.691 157.329C946.172 162.656 946.917 168.255 945.927 174.126C944.955 179.971 942.37 185.811 938.172 191.645C935.069 195.957 931.666 199.457 927.962 202.143C924.258 204.829 920.309 206.626 916.113 207.535C911.918 208.443 907.628 208.359 903.243 207.283C898.859 206.207 894.472 204.09 890.084 200.933C885.721 197.793 882.317 194.285 879.871 190.408C877.443 186.505 875.997 182.442 875.532 178.219C875.067 173.996 875.534 169.655 876.934 165.195C878.359 160.754 880.577 156.44 883.589 152.255C886.673 147.968 890.111 144.474 893.902 141.774C897.718 139.091 901.697 137.334 905.838 136.502C909.978 135.67 914.197 135.799 918.495 136.889C922.81 137.954 927.099 140.02 931.36 143.086ZM926.774 183.328C929.713 179.244 931.599 175.231 932.434 171.289C933.269 167.347 933.003 163.729 931.638 160.437C930.316 157.138 928.07 154.347 924.899 152.066C922.642 150.441 920.239 149.367 917.69 148.842C915.185 148.31 912.651 148.354 910.088 148.974C907.55 149.611 904.963 150.907 902.326 152.859C899.733 154.805 897.305 157.35 895.041 160.495C892.76 163.666 891.091 166.815 890.034 169.943C889.002 173.089 888.597 176.032 888.82 178.772C889.087 181.505 889.858 183.965 891.133 186.153C892.433 188.359 894.211 190.274 896.469 191.898C899.361 193.979 902.532 195.163 905.982 195.451C909.457 195.758 912.991 194.913 916.584 192.916C920.202 190.938 923.598 187.742 926.774 183.328Z" fill="black"/>
<path d="M999.631 939.783C997.876 938.477 996.297 936.621 994.894 934.214C993.497 931.851 992.498 929.005 991.898 925.676C991.322 922.365 991.493 918.812 992.409 915.014C993.325 911.217 995.21 907.4 998.064 903.564C1000.23 900.655 1002.47 898.215 1004.79 896.244C1007.12 894.272 1009.58 892.737 1012.19 891.64C1014.81 890.586 1017.67 889.952 1020.79 889.74C1023.6 889.573 1026.46 889.768 1029.35 890.325C1032.27 890.901 1035.15 891.831 1037.97 893.114C1040.78 894.421 1043.54 896.092 1046.28 898.125C1050.72 901.426 1054.21 905.022 1056.77 908.912C1059.31 912.827 1060.93 916.911 1061.62 921.165C1062.34 925.437 1062.15 929.675 1061.04 933.88C1059.94 938.084 1058.03 942.016 1055.3 945.677C1051.98 950.14 1048.14 953.452 1043.77 955.613C1039.39 957.774 1035.2 958.803 1031.19 958.7C1027.2 958.616 1024.04 957.706 1021.71 955.972C1020.43 955.02 1019.64 953.73 1019.33 952.1C1019.02 950.469 1019.35 949.015 1020.3 947.736C1021.36 946.307 1022.5 945.481 1023.72 945.257C1024.92 945.059 1026.67 945.136 1028.98 945.49C1032.79 946.069 1036.11 945.871 1038.94 944.898C1041.75 943.949 1044.23 942.033 1046.37 939.15C1049.79 934.561 1050.77 929.604 1049.31 924.279C1047.84 918.978 1043.9 913.94 1037.48 909.166C1033.19 905.976 1029.17 903.92 1025.42 902.997C1021.69 902.093 1018.3 902.222 1015.26 903.384C1012.21 904.546 1009.59 906.606 1007.39 909.565C1005 912.774 1003.78 916.07 1003.71 919.451C1003.66 922.876 1004.75 926.3 1007 929.723C1008.1 931.281 1008.84 932.747 1009.22 934.12C1009.62 935.513 1009.25 936.986 1008.09 938.54C1007.1 939.869 1005.79 940.665 1004.15 940.928C1002.52 941.19 1001.01 940.809 999.631 939.783Z" fill="black"/>
<path d="M979.217 941.69L1019.18 978.22C1021.25 980.118 1022.38 982.014 1022.55 983.909C1022.72 985.803 1022.13 987.5 1020.75 988.999C1019.34 990.544 1017.68 991.315 1015.78 991.312C1013.88 991.353 1011.88 990.414 1009.78 988.496L969.824 951.966C967.725 950.047 966.599 948.129 966.447 946.211C966.273 944.317 966.893 942.597 968.306 941.052C969.655 939.575 971.291 938.828 973.215 938.808C975.14 938.832 977.141 939.793 979.217 941.69Z" fill="black"/>
<path d="M959.154 992.388L962.777 989.126L948.003 972.719C946.058 970.56 945.102 968.54 945.134 966.661C945.166 964.782 945.948 963.152 947.481 961.772C949.129 960.288 950.887 959.672 952.755 959.924C954.623 960.177 956.487 961.337 958.348 963.403L993.731 1002.69C995.738 1004.92 996.693 1006.99 996.593 1008.89C996.494 1010.78 995.33 1012.74 993.1 1014.74L976.276 1029.89C973.954 1031.99 971.874 1033.67 970.037 1034.94C968.221 1036.24 966.379 1037.19 964.512 1037.78C962.303 1038.54 960.019 1038.86 957.659 1038.71C955.299 1038.57 953.053 1037.94 950.92 1036.83C948.785 1035.77 946.881 1034.31 945.208 1032.45C941.779 1028.64 940.119 1024.63 940.229 1020.41C940.316 1016.21 942.114 1011.67 945.622 1006.78C942.91 1007.46 939.86 1007.6 936.473 1007.2C933.086 1006.8 929.77 1006.11 926.525 1005.12C923.278 1004.17 920.51 1003.15 918.221 1002.06C915.931 1001.01 914.493 1000.16 913.907 999.512C913.301 998.839 912.915 997.967 912.75 996.896C912.582 995.869 912.703 994.836 913.111 993.795C913.499 992.731 914.18 991.76 915.156 990.882C916.317 989.836 917.543 989.236 918.834 989.083C920.105 988.906 921.407 988.974 922.74 989.287C924.05 989.621 925.925 990.162 928.364 990.909L938.72 994.073C942.486 995.266 945.557 995.991 947.933 996.248C950.286 996.526 952.286 996.365 953.932 995.766C955.579 995.166 957.32 994.04 959.154 992.388ZM972.555 1019.18L982.099 1010.58L969.458 996.545L960.193 1004.89C957.708 1007.13 955.806 1009.22 954.487 1011.16C953.19 1013.13 952.559 1015.02 952.597 1016.84C952.632 1018.7 953.466 1020.53 955.097 1022.35C956.372 1023.76 957.851 1024.68 959.533 1025.1C961.236 1025.54 962.966 1025.46 964.724 1024.84C966.392 1024.27 969.002 1022.38 972.555 1019.18Z" fill="black"/>
<path d="M866.16 1053.39C864.933 1051.58 864.053 1049.31 863.521 1046.57C862.981 1043.88 862.976 1040.86 863.505 1037.52C864.052 1034.21 865.384 1030.91 867.5 1027.62C869.616 1024.34 872.654 1021.36 876.612 1018.68C879.613 1016.64 882.535 1015.08 885.378 1013.98C888.222 1012.89 891.056 1012.25 893.88 1012.07C896.696 1011.94 899.611 1012.28 902.624 1013.11C905.334 1013.88 907.965 1015 910.515 1016.48C913.084 1017.99 915.489 1019.81 917.733 1021.96C919.951 1024.11 922.015 1026.6 923.926 1029.42C927.028 1034 929.147 1038.55 930.282 1043.07C931.391 1047.6 931.571 1051.99 930.823 1056.23C930.092 1060.5 928.514 1064.44 926.088 1068.05C923.662 1071.65 920.561 1074.74 916.784 1077.3C912.179 1080.42 907.456 1082.28 902.615 1082.88C897.775 1083.48 893.477 1083.07 889.722 1081.65C885.985 1080.25 883.301 1078.35 881.671 1075.95C880.777 1074.63 880.453 1073.15 880.701 1071.51C880.949 1069.87 881.732 1068.6 883.052 1067.71C884.526 1066.71 885.875 1066.3 887.099 1066.49C888.297 1066.7 889.927 1067.35 891.989 1068.45C895.4 1070.25 898.601 1071.16 901.591 1071.17C904.556 1071.2 907.526 1070.21 910.501 1068.19C915.235 1064.98 917.794 1060.62 918.177 1055.12C918.535 1049.63 916.47 1043.57 911.982 1036.95C908.985 1032.53 905.866 1029.26 902.626 1027.15C899.403 1025.07 896.163 1024.08 892.905 1024.17C889.646 1024.26 886.491 1025.35 883.438 1027.41C880.127 1029.66 877.885 1032.37 876.713 1035.54C875.532 1038.75 875.438 1042.35 876.43 1046.32C876.955 1048.15 877.171 1049.78 877.077 1051.2C877.001 1052.65 876.162 1053.92 874.558 1055C873.186 1055.93 871.685 1056.25 870.053 1055.96C868.422 1055.67 867.124 1054.81 866.16 1053.39Z" fill="black"/>
<path d="M855.405 1067.05L869.808 1096.79C871.034 1099.32 871.391 1101.49 870.878 1103.3C870.338 1105.13 869.14 1106.49 867.284 1107.39C865.343 1108.33 863.504 1108.44 861.766 1107.71C860 1107.01 858.504 1105.39 857.278 1102.86L842.548 1072.44C840.873 1068.98 839.09 1066.27 837.201 1064.3C835.296 1062.37 833.046 1061.24 830.451 1060.9C827.869 1060.59 824.807 1061.29 821.263 1063.01C816.369 1065.38 813.536 1068.35 812.764 1071.91C812.005 1075.51 812.906 1079.95 815.467 1085.24L830.319 1115.91C831.559 1118.47 831.915 1120.64 831.39 1122.42C830.878 1124.23 829.679 1125.6 827.795 1126.51C825.91 1127.42 824.085 1127.52 822.319 1126.82C820.539 1126.15 819.029 1124.54 817.789 1121.98L803.386 1092.24C801.044 1087.4 799.567 1083.13 798.957 1079.43C798.319 1075.75 798.716 1072.05 800.146 1068.34C801.389 1065.17 803.269 1062.38 805.787 1059.98C808.305 1057.58 811.561 1055.41 815.555 1053.48C820.309 1051.18 824.646 1049.7 828.568 1049.05C832.503 1048.43 836.071 1048.67 839.272 1049.75C842.486 1050.87 845.41 1052.86 848.043 1055.72C850.69 1058.6 853.144 1062.38 855.405 1067.05Z" fill="black"/>
<path d="M783.53 1134.91L767.801 1087.44L741.014 1096.31C738.878 1097.02 737.075 1097.04 735.604 1096.37C734.103 1095.72 733.092 1094.61 732.571 1093.03C732.04 1091.43 732.172 1089.94 732.965 1088.56C733.768 1087.2 735.252 1086.17 737.417 1085.45L769.321 1074.88C772.199 1073.93 774.487 1073.88 776.185 1074.73C777.853 1075.6 779.159 1077.45 780.103 1080.3L796.746 1130.54C797.63 1133.2 797.701 1135.4 796.956 1137.13C796.182 1138.87 794.816 1140.06 792.858 1140.71C790.871 1141.37 789.048 1141.23 787.389 1140.3C785.711 1139.41 784.425 1137.61 783.53 1134.91Z" fill="black"/>
<path d="M681.479 1105.38L686.365 1113.21L713.776 1107.81L715.293 1098.53C715.885 1094.91 716.508 1092.41 717.162 1091.04C717.822 1089.7 719.163 1088.83 721.187 1088.43C722.904 1088.09 724.546 1088.42 726.112 1089.42C727.678 1090.42 728.618 1091.71 728.932 1093.31C729.113 1094.23 729.147 1095.21 729.033 1096.25C728.92 1097.29 728.683 1098.75 728.322 1100.64L719.7 1147.82C719.457 1149.18 719.17 1150.79 718.84 1152.67C718.485 1154.59 718.039 1156.21 717.502 1157.52C716.934 1158.85 716.091 1159.98 714.973 1160.94C713.83 1161.93 712.324 1162.6 710.453 1162.97C708.553 1163.35 706.901 1163.29 705.499 1162.8C704.072 1162.35 702.864 1161.63 701.874 1160.65C700.853 1159.67 699.953 1158.58 699.172 1157.36C698.366 1156.18 697.335 1154.58 696.078 1152.57L669.894 1112.53C667.862 1109.49 666.698 1107.22 666.402 1105.72C666.094 1104.16 666.469 1102.59 667.528 1101.01C668.562 1099.47 669.999 1098.51 671.838 1098.15C672.912 1097.94 673.871 1097.96 674.716 1098.21C675.555 1098.42 676.298 1098.8 676.946 1099.34C677.6 1099.91 678.367 1100.81 679.246 1102.04C680.1 1103.31 680.845 1104.42 681.479 1105.38ZM712.209 1118.77L692.065 1122.74L707.71 1148.56L712.209 1118.77Z" fill="black"/>
<path d="M638.21 1131.9L643.077 1131.63L641.842 1109.58C641.68 1106.68 642.199 1104.51 643.402 1103.07C644.604 1101.62 646.235 1100.84 648.294 1100.73C650.509 1100.6 652.266 1101.22 653.563 1102.59C654.86 1103.96 655.587 1106.03 655.742 1108.81L658.7 1161.6C658.868 1164.59 658.319 1166.8 657.052 1168.22C655.786 1169.63 653.655 1170.43 650.66 1170.59L628.054 1171.86C624.934 1172.03 622.259 1172.04 620.028 1171.89C617.798 1171.76 615.772 1171.34 613.948 1170.63C611.744 1169.85 609.769 1168.66 608.021 1167.07C606.272 1165.47 604.914 1163.58 603.946 1161.38C602.948 1159.21 602.379 1156.88 602.24 1154.39C601.953 1149.27 603.175 1145.1 605.905 1141.88C608.604 1138.66 612.851 1136.25 618.645 1134.64C616.107 1133.47 613.643 1131.67 611.253 1129.23C608.863 1126.8 606.713 1124.18 604.803 1121.38C602.864 1118.61 601.345 1116.08 600.247 1113.79C599.119 1111.54 598.531 1109.98 598.482 1109.1C598.431 1108.2 598.677 1107.28 599.219 1106.34C599.731 1105.43 600.473 1104.7 601.443 1104.15C602.412 1103.56 603.552 1103.23 604.862 1103.16C606.422 1103.07 607.754 1103.37 608.856 1104.06C609.957 1104.72 610.929 1105.59 611.772 1106.67C612.584 1107.75 613.707 1109.35 615.139 1111.46L621.228 1120.41C623.415 1123.7 625.355 1126.19 627.045 1127.88C628.705 1129.57 630.365 1130.7 632.024 1131.26C633.683 1131.83 635.745 1132.04 638.21 1131.9ZM631.869 1161.18L644.693 1160.46L643.636 1141.6L631.187 1142.29C627.848 1142.48 625.056 1142.92 622.809 1143.61C620.565 1144.33 618.888 1145.41 617.78 1146.85C616.641 1148.32 616.141 1150.27 616.277 1152.71C616.384 1154.61 616.961 1156.25 618.008 1157.63C619.058 1159.05 620.461 1160.06 622.217 1160.68C623.878 1161.28 627.095 1161.44 631.869 1161.18Z" fill="black"/>
<path d="M514.992 1156.19L542.237 1159.3L544.229 1141.84L521.455 1139.24C519.344 1139 517.831 1138.34 516.916 1137.26C515.967 1136.21 515.582 1134.89 515.763 1133.3C515.944 1131.72 516.615 1130.52 517.777 1129.71C518.939 1128.9 520.56 1128.62 522.64 1128.85L545.414 1131.45L547.981 1108.96C548.307 1106.1 549.201 1104.05 550.665 1102.8C552.094 1101.58 553.817 1101.08 555.835 1101.31C557.884 1101.55 559.481 1102.44 560.626 1103.98C561.74 1105.53 562.135 1107.71 561.813 1110.53L555.819 1163.07C555.593 1165.06 555.113 1166.64 554.382 1167.81C553.647 1169.02 552.626 1169.83 551.32 1170.25C549.98 1170.69 548.332 1170.8 546.376 1170.58L513.775 1166.86C511.57 1166.61 509.997 1165.92 509.055 1164.81C508.078 1163.72 507.68 1162.39 507.86 1160.81C508.045 1159.19 508.737 1157.95 509.937 1157.08C511.102 1156.24 512.787 1155.94 514.992 1156.19Z" fill="black"/>
<path d="M465.77 1094.16L467.012 1103.31L494.223 1109.64L499.416 1101.8C501.442 1098.74 503.035 1096.72 504.194 1095.74C505.345 1094.79 506.926 1094.54 508.935 1095.01C510.639 1095.41 512.001 1096.38 513.019 1097.93C514.038 1099.49 514.363 1101.05 513.995 1102.64C513.783 1103.55 513.411 1104.46 512.88 1105.36C512.349 1106.27 511.532 1107.5 510.428 1109.07L483.198 1148.56C482.421 1149.69 481.496 1151.05 480.423 1152.63C479.312 1154.23 478.242 1155.52 477.212 1156.5C476.152 1157.47 474.916 1158.17 473.505 1158.58C472.057 1159.01 470.404 1159.01 468.548 1158.58C466.661 1158.14 465.178 1157.41 464.1 1156.39C462.984 1155.39 462.177 1154.24 461.678 1152.94C461.149 1151.63 460.777 1150.26 460.564 1148.83C460.314 1147.42 460.029 1145.54 459.71 1143.19L452.268 1095.93C451.663 1092.33 451.534 1089.78 451.881 1088.29C452.242 1086.74 453.229 1085.46 454.842 1084.45C456.418 1083.47 458.119 1083.19 459.945 1083.62C461.011 1083.87 461.878 1084.28 462.547 1084.85C463.223 1085.39 463.745 1086.04 464.114 1086.8C464.475 1087.59 464.805 1088.73 465.102 1090.21C465.362 1091.71 465.585 1093.03 465.77 1094.16ZM488.294 1118.99L468.297 1114.34L471.963 1144.31L488.294 1118.99Z" fill="black"/>
<path d="M388.967 1080.73C390.449 1076.85 392.788 1073.74 395.984 1071.41C399.151 1069.08 402.995 1067.77 407.518 1067.49C412.04 1067.21 416.944 1068.08 422.228 1070.09C428.563 1072.51 433.332 1075.7 436.535 1079.67C438.797 1082.51 440.302 1085.71 441.049 1089.27C441.756 1092.85 441.591 1096 440.555 1098.71C439.953 1100.29 438.9 1101.43 437.396 1102.12C435.852 1102.84 434.234 1102.87 432.54 1102.23C431.168 1101.7 430.182 1100.83 429.582 1099.59C428.953 1098.35 428.631 1096.74 428.617 1094.76C428.58 1092.4 428.356 1090.36 427.946 1088.63C427.506 1086.89 426.598 1085.24 425.221 1083.68C423.832 1082.15 421.737 1080.84 418.934 1079.77C415.08 1078.3 411.617 1078 408.543 1078.87C405.429 1079.75 403.359 1081.54 402.334 1084.22C401.52 1086.36 401.519 1088.33 402.332 1090.14C403.104 1091.98 404.392 1093.64 406.198 1095.13C407.974 1096.61 410.434 1098.41 413.578 1100.51C417.779 1103.35 421.168 1106.08 423.746 1108.7C426.283 1111.35 427.998 1114.26 428.89 1117.44C429.742 1120.64 429.46 1124.1 428.045 1127.81C426.696 1131.34 424.535 1134.11 421.561 1136.12C418.586 1138.13 414.996 1139.16 410.789 1139.23C406.571 1139.33 401.995 1138.43 397.061 1136.55C393.12 1135.05 389.908 1133.25 387.426 1131.17C384.903 1129.1 383.005 1126.89 381.731 1124.53C380.447 1122.2 379.706 1119.97 379.51 1117.86C379.314 1115.74 379.539 1113.84 380.186 1112.15C380.776 1110.6 381.866 1109.41 383.455 1108.58C385.003 1107.76 386.594 1107.67 388.229 1108.29C389.718 1108.86 390.718 1109.66 391.227 1110.69C391.697 1111.74 392.061 1113.28 392.319 1115.32C392.562 1118.19 393.245 1120.61 394.367 1122.58C395.478 1124.57 397.844 1126.26 401.464 1127.64C404.822 1128.93 407.821 1129.22 410.462 1128.52C413.063 1127.84 414.759 1126.46 415.55 1124.39C416.041 1123.11 416.114 1121.86 415.77 1120.66C415.426 1119.46 414.769 1118.29 413.799 1117.15C412.829 1116.01 411.789 1115.01 410.678 1114.15C409.568 1113.29 407.707 1111.95 405.095 1110.11C401.798 1107.89 398.885 1105.7 396.355 1103.57C393.796 1101.42 391.774 1099.23 390.287 1096.99C388.772 1094.74 387.874 1092.27 387.593 1089.59C387.272 1086.92 387.73 1083.97 388.967 1080.73Z" fill="black"/>
<path d="M343.903 1103.45L353.377 1086.2L327.038 1071.74L317.564 1089C316.211 1091.46 314.648 1093.01 312.875 1093.64C311.075 1094.26 309.271 1094.07 307.463 1093.08C305.628 1092.07 304.487 1090.64 304.041 1088.79C303.552 1086.95 303.992 1084.79 305.36 1082.3L331.413 1034.84C332.781 1032.34 334.379 1030.8 336.206 1030.19C338.034 1029.59 339.851 1029.79 341.659 1030.78C343.495 1031.79 344.622 1033.21 345.041 1035.04C345.445 1036.91 344.97 1039.07 343.617 1041.54L332.496 1061.79L358.836 1076.25L369.956 1055.99C371.325 1053.5 372.922 1051.95 374.75 1051.35C376.577 1050.75 378.395 1050.95 380.203 1051.94C382.038 1052.95 383.165 1054.37 383.584 1056.2C383.988 1058.06 383.514 1060.23 382.16 1062.69L356.107 1110.15C354.754 1112.62 353.205 1114.17 351.46 1114.82C349.687 1115.45 347.87 1115.26 346.007 1114.23C344.171 1113.23 343.03 1111.8 342.584 1109.95C342.095 1108.11 342.535 1105.95 343.903 1103.45Z" fill="black"/>
<path d="M317.666 1026.3L286.861 1070.82C285.261 1073.13 283.534 1074.5 281.68 1074.93C279.826 1075.36 278.064 1074.99 276.394 1073.84C274.672 1072.65 273.684 1071.11 273.431 1069.22C273.134 1067.35 273.794 1065.24 275.412 1062.9L306.217 1018.38C307.835 1016.04 309.584 1014.66 311.463 1014.25C313.317 1013.83 315.105 1014.21 316.826 1015.4C318.471 1016.54 319.433 1018.06 319.712 1019.96C319.948 1021.87 319.266 1023.98 317.666 1026.3Z" fill="black"/>
<path d="M229.529 1036.13C224.127 1031.48 220.443 1026.4 218.477 1020.87C216.466 1015.35 216.208 1009.71 217.703 1003.94C219.178 998.205 222.258 992.611 226.946 987.162C230.41 983.135 234.104 979.943 238.026 977.587C241.949 975.232 246.039 973.783 250.297 973.242C254.555 972.7 258.822 973.155 263.097 974.607C267.372 976.058 271.559 978.547 275.657 982.072C279.732 985.577 282.82 989.367 284.921 993.442C287.002 997.54 288.091 1001.71 288.189 1005.96C288.286 1010.21 287.445 1014.49 285.664 1018.81C283.86 1023.12 281.277 1027.22 277.915 1031.13C274.471 1035.13 270.743 1038.32 266.733 1040.68C262.698 1043.02 258.583 1044.43 254.385 1044.9C250.188 1045.37 245.996 1044.87 241.81 1043.42C237.602 1041.98 233.509 1039.55 229.529 1036.13ZM237.581 996.434C234.3 1000.25 232.073 1004.08 230.9 1007.94C229.727 1011.79 229.679 1015.42 230.754 1018.82C231.785 1022.22 233.781 1025.19 236.743 1027.74C238.851 1029.56 241.152 1030.83 243.646 1031.58C246.095 1032.32 248.623 1032.5 251.23 1032.1C253.814 1031.69 256.504 1030.62 259.3 1028.91C262.052 1027.19 264.691 1024.87 267.218 1021.93C269.766 1018.97 271.701 1015.97 273.025 1012.95C274.325 1009.9 274.983 1007.01 274.998 1004.26C274.969 1001.51 274.414 998.996 273.333 996.706C272.229 994.396 270.623 992.334 268.514 990.52C265.813 988.197 262.757 986.742 259.345 986.157C255.909 985.551 252.315 986.087 248.563 987.765C244.788 989.422 241.127 992.312 237.581 996.434Z" fill="black"/>
<path d="M182.779 979.007L195.96 932.286L165.011 958.987C163 960.722 161.13 961.592 159.401 961.598C157.628 961.6 156.109 960.868 154.843 959.401C153.537 957.886 153.015 956.252 153.277 954.499C153.515 952.766 154.64 951.032 156.652 949.297L197.574 913.992C202.14 910.052 206.057 909.975 209.323 913.761C210.139 914.708 210.732 915.682 211.102 916.684C211.495 917.666 211.681 918.743 211.661 919.916C211.641 921.089 211.486 922.296 211.195 923.538C210.88 924.799 210.554 926.072 210.216 927.354L196.961 973.272L227.448 946.97C229.436 945.255 231.337 944.42 233.15 944.465C234.964 944.51 236.493 945.254 237.738 946.698C239.024 948.188 239.547 949.822 239.305 951.599C239.039 953.396 237.925 955.142 235.961 956.837L195.82 991.468C194.116 992.938 192.616 993.902 191.319 994.36C189.866 994.829 188.36 994.829 186.799 994.359C185.215 993.91 183.902 993.082 182.861 991.876C182.044 990.929 181.504 989.992 181.24 989.064C180.956 988.113 180.859 987.164 180.951 986.218C181.023 985.248 181.248 984.146 181.627 982.911C181.986 981.652 182.37 980.351 182.779 979.007Z" fill="black"/>
</svg>
